# xmcd
#
# Track frame offsets:
#	150
#	18215
#	38822
#	62580
#	82779
#	100796
#	122215
#	142068
#	161668
#	180559
#
# Disc length: 2700 seconds
#
# Revision: 2394149543
# Processed by: cddbd v1.5.2PL0 Copyright (c) Steve Scherf et al.
# Submitted via: EZCDAudioConverter 8.0.2.1
#
DISCID=780a8a0a
DTITLE=Mai Thiên Vân - Cung Chúc Trinh Vương
DYEAR=2011
DGENRE=East Asia
TTITLE0=Cung Chúc Trinh Vương
TTITLE1=Mẹ là bóng mát
TTITLE2=Vòng hoa dâng Mẹ
TTITLE3=Trinh Vương Maria
TTITLE4=Mùa hoa về rơi
TTITLE5=Bông hồng dâng Mẹ
TTITLE6=Mẹ dẫn dắt con
TTITLE7=Ở Tráng
TTITLE8=Khúc hát dâng hoa
TTITLE9=Con xin dâng Mẹ
EXTD=
EXTT0=
EXTT1=
EXTT2=
EXTT3=
EXTT4=
EXTT5=
EXTT6=
EXTT7=
EXTT8=
EXTT9=
PLAYORDER=
